<svg width="122" height="103" viewBox="0 0 122 103" fill="none" xmlns="http://www.w3.org/2000/svg">
<g opacity="0.16" clip-path="url(#clip0_2024_125)">
<path d="M57.7601 91.6936C61.8444 92.7821 70.9411 95.2066 72.3662 89.4399C73.8489 83.5736 65.1556 81.6101 60.884 80.6452C60.393 80.5343 59.9604 80.4366 59.6084 80.3477L56.8412 91.4524C57.1068 91.5195 57.4156 91.6018 57.7601 91.6936Z" fill="#BBF519"/>
<path d="M61.7084 75.4584C65.1235 76.3809 72.6273 78.408 73.9475 73.1602C75.2686 67.8435 68.0379 66.2249 64.4823 65.4289C64.0724 65.3372 63.7113 65.2563 63.4178 65.182L60.9021 75.2445C61.1338 75.3032 61.405 75.3764 61.7084 75.4584Z" fill="#BBF519"/>
<path fill-rule="evenodd" clip-rule="evenodd" d="M50.8766 123.622C75.4974 129.768 100.478 114.78 106.624 90.1241C112.77 65.4677 97.746 40.4883 73.1252 34.3782C48.4684 28.2318 23.5242 43.2199 17.3782 67.8759C11.2318 92.4963 26.2199 117.476 50.8766 123.622ZM73.7678 61.6602C80.1647 63.8523 84.8006 67.1586 83.9022 73.268C83.2553 77.7242 80.7756 79.9164 77.4334 80.6711C81.9615 83.043 84.2615 86.6727 82.0694 92.9258C79.374 100.724 72.9053 101.371 64.2803 99.7539L62.1959 108.127L57.1646 106.87L59.2131 98.604C57.9193 98.2805 56.5537 97.9211 55.1881 97.5618L53.1037 105.863L48.0725 104.606L50.1568 96.2321C49.4771 96.0467 48.7973 95.8731 48.1108 95.6978C47.5996 95.5673 47.0846 95.4357 46.5631 95.2977L39.9865 93.6446L42.5021 87.8586C42.5021 87.8586 46.2037 88.8289 46.1678 88.7571C47.5693 89.1164 48.2162 88.1821 48.4678 87.5711L51.774 74.3461C51.9537 74.418 52.1334 74.4539 52.313 74.4898C52.1235 74.3951 51.9619 74.3559 51.8279 74.3234C51.8094 74.3189 51.7914 74.3145 51.774 74.3102L54.1459 64.8586C54.2178 63.7805 53.8584 62.4148 51.81 61.9117C51.8818 61.8758 48.1443 61.0133 48.1443 61.0133L49.474 55.6226L56.4459 57.3476V57.3836C57.4881 57.6351 58.5662 57.8867 59.6803 58.1383L61.7287 49.8726L66.76 51.1305L64.7475 59.2523C66.1131 59.5398 67.4787 59.8633 68.8084 60.1867L70.8209 52.1008L75.8522 53.3586L73.7678 61.6602Z" fill="#BBF519"/>
</g>
<defs>
<clipPath id="clip0_2024_125">
<rect width="123" height="103" fill="white"/>
</clipPath>
</defs>
</svg>
