<svg width="130" height="90" viewBox="0 0 130 90" fill="none" xmlns="http://www.w3.org/2000/svg">
<g opacity="0.32" clip-path="url(#clip0_2024_127)" filter="url(#filter0_d_2024_127)">
<g filter="url(#filter1_b_2024_127)">
<path fill-rule="evenodd" clip-rule="evenodd" d="M37.7416 73.256C8.05146 57.9245 -3.58721 21.4314 11.7443 -8.25867C27.0757 -37.9488 63.5688 -49.5874 93.2589 -34.256C122.949 -18.9245 134.588 17.5686 119.256 47.2587C103.925 76.9488 67.4317 88.5875 37.7416 73.256ZM81.8667 41.3736C86.2439 32.897 83.4212 25.3751 72.5744 15.995L80.2774 1.07772C83.7016 3.84171 86.5152 7.38413 88.7624 11.8257L97.1382 6.80541C94.3419 1.18893 90.1218 -3.59621 84.899 -7.07273L87.3313 -11.7831L80.2422 -15.4438L77.8914 -10.8913C67.2987 -15.3654 57.3746 -13.1321 52.9974 -4.65542C48.4172 4.21432 51.7281 11.3925 62.0843 20.5193L54.1384 35.9069C49.2461 32.3848 46.0643 27.7586 43.2828 21.7475L34.3801 26.1977C37.7428 33.3766 43.0048 39.4992 49.5967 43.9028L45.5439 51.7512L52.633 55.4119L56.6458 47.6408C67.4397 52.1209 77.4079 50.0082 81.8667 41.3736ZM66.9856 11.0195C61.6446 5.97626 61.1938 3.05819 62.8975 -0.241081C64.6793 -3.69154 68.7862 -5.05188 74.1229 -2.79402L66.9856 11.0195ZM71.9683 36.9559C70.0217 40.7256 65.751 41.8013 60.4143 39.5435L67.7513 25.3351C73.1746 30.4251 73.7917 33.4248 71.9665 36.9593L71.9683 36.9559Z" fill="#BBF519"/>
</g>
</g>
<defs>
<filter id="filter0_d_2024_127" x="-1" y="0" width="131" height="98" filterUnits="userSpaceOnUse" color-interpolation-filters="sRGB">
<feFlood flood-opacity="0" result="BackgroundImageFix"/>
<feColorMatrix in="SourceAlpha" type="matrix" values="0 0 0 0 0 0 0 0 0 0 0 0 0 0 0 0 0 0 127 0" result="hardAlpha"/>
<feOffset dy="4"/>
<feGaussianBlur stdDeviation="2"/>
<feComposite in2="hardAlpha" operator="out"/>
<feColorMatrix type="matrix" values="0 0 0 0 0 0 0 0 0 0 0 0 0 0 0 0 0 0 0.25 0"/>
<feBlend mode="normal" in2="BackgroundImageFix" result="effect1_dropShadow_2024_127"/>
<feBlend mode="normal" in="SourceGraphic" in2="effect1_dropShadow_2024_127" result="shape"/>
</filter>
<filter id="filter1_b_2024_127" x="-6.30783" y="-52.3084" width="143.617" height="143.617" filterUnits="userSpaceOnUse" color-interpolation-filters="sRGB">
<feFlood flood-opacity="0" result="BackgroundImageFix"/>
<feGaussianBlur in="BackgroundImageFix" stdDeviation="5.64756"/>
<feComposite in2="SourceAlpha" operator="in" result="effect1_backgroundBlur_2024_127"/>
<feBlend mode="normal" in="SourceGraphic" in2="effect1_backgroundBlur_2024_127" result="shape"/>
</filter>
<clipPath id="clip0_2024_127">
<rect width="123" height="90" fill="white" transform="translate(3)"/>
</clipPath>
</defs>
</svg>
