<svg width="1440" height="560" viewBox="0 0 1440 560" fill="none" xmlns="http://www.w3.org/2000/svg">
<g opacity="0.16" clip-path="url(#clip0_2056_123)">
<path d="M1375.76 91.6936C1379.84 92.7821 1388.94 95.2066 1390.37 89.4399C1391.85 83.5736 1383.16 81.6101 1378.88 80.6452C1378.39 80.5343 1377.96 80.4366 1377.61 80.3477L1374.84 91.4524C1375.11 91.5195 1375.42 91.6018 1375.76 91.6936Z" fill="#BBF519"/>
<path d="M1379.71 75.4584C1383.12 76.3809 1390.63 78.408 1391.95 73.1602C1393.27 67.8435 1386.04 66.2249 1382.48 65.4289C1382.07 65.3372 1381.71 65.2563 1381.42 65.182L1378.9 75.2445C1379.13 75.3032 1379.4 75.3764 1379.71 75.4584Z" fill="#BBF519"/>
<path fill-rule="evenodd" clip-rule="evenodd" d="M1368.88 123.622C1393.5 129.768 1418.48 114.78 1424.62 90.1241C1430.77 65.4677 1415.75 40.4883 1391.13 34.3782C1366.47 28.2318 1341.52 43.2199 1335.38 67.8759C1329.23 92.4963 1344.22 117.476 1368.88 123.622ZM1391.77 61.6602C1398.16 63.8523 1402.8 67.1586 1401.9 73.268C1401.26 77.7242 1398.78 79.9164 1395.43 80.6711C1399.96 83.043 1402.26 86.6727 1400.07 92.9258C1397.37 100.724 1390.91 101.371 1382.28 99.7539L1380.2 108.127L1375.16 106.87L1377.21 98.604C1375.92 98.2805 1374.55 97.9211 1373.19 97.5618L1371.1 105.863L1366.07 104.606L1368.16 96.2321C1367.48 96.0467 1366.8 95.8731 1366.11 95.6978C1365.6 95.5673 1365.08 95.4357 1364.56 95.2977L1357.99 93.6446L1360.5 87.8586C1360.5 87.8586 1364.2 88.8289 1364.17 88.7571C1365.57 89.1164 1366.22 88.1821 1366.47 87.5711L1369.77 74.3461C1369.95 74.418 1370.13 74.4539 1370.31 74.4898C1370.12 74.3951 1369.96 74.3559 1369.83 74.3234C1369.81 74.3189 1369.79 74.3145 1369.77 74.3102L1372.15 64.8586C1372.22 63.7805 1371.86 62.4148 1369.81 61.9117C1369.88 61.8758 1366.14 61.0133 1366.14 61.0133L1367.47 55.6226L1374.45 57.3476V57.3836C1375.49 57.6351 1376.57 57.8867 1377.68 58.1383L1379.73 49.8726L1384.76 51.1305L1382.75 59.2523C1384.11 59.5398 1385.48 59.8633 1386.81 60.1867L1388.82 52.1008L1393.85 53.3586L1391.77 61.6602Z" fill="#BBF519"/>
</g>
<g opacity="0.32" clip-path="url(#clip1_2056_123)" filter="url(#filter0_d_2056_123)">
<g filter="url(#filter1_b_2056_123)">
<path fill-rule="evenodd" clip-rule="evenodd" d="M1299.74 176.256C1270.05 160.925 1258.41 124.431 1273.74 94.7413C1289.08 65.0512 1325.57 53.4126 1355.26 68.744C1384.95 84.0755 1396.59 120.569 1381.26 150.259C1365.92 179.949 1329.43 191.587 1299.74 176.256ZM1343.87 144.374C1348.24 135.897 1345.42 128.375 1334.57 118.995L1342.28 104.078C1345.7 106.842 1348.52 110.384 1350.76 114.826L1359.14 109.805C1356.34 104.189 1352.12 99.4038 1346.9 95.9273L1349.33 91.2169L1342.24 87.5562L1339.89 92.1087C1329.3 87.6346 1319.37 89.8679 1315 98.3446C1310.42 107.214 1313.73 114.392 1324.08 123.519L1316.14 138.907C1311.25 135.385 1308.06 130.759 1305.28 124.747L1296.38 129.198C1299.74 136.377 1305 142.499 1311.6 146.903L1307.54 154.751L1314.63 158.412L1318.65 150.641C1329.44 155.121 1339.41 153.008 1343.87 144.374ZM1328.99 114.02C1323.64 108.976 1323.19 106.058 1324.9 102.759C1326.68 99.3085 1330.79 97.9481 1336.12 100.206L1328.99 114.02ZM1333.97 139.956C1332.02 143.726 1327.75 144.801 1322.41 142.543L1329.75 128.335C1335.17 133.425 1335.79 136.425 1333.97 139.959L1333.97 139.956Z" fill="#BBF519"/>
</g>
</g>
<g opacity="0.16" clip-path="url(#clip2_2056_123)">
<g filter="url(#filter2_b_2056_123)">
<path d="M928.338 452.516L928.342 452.522C940.696 444.55 948.87 436.815 947.324 434.168C945.781 431.526 935.024 434.842 922.011 441.686L927.058 450.325C926.708 450.574 924.826 451.893 920.881 454.198C917.592 456.119 915.13 457.369 914.266 457.795L909.216 449.152C896.84 457.146 888.646 464.901 890.191 467.545C891.738 470.193 902.517 466.864 915.553 459.998L915.547 459.988C916.387 459.55 918.769 458.29 922.07 456.361C926.205 453.946 927.994 452.752 928.338 452.516Z" fill="#BBF519"/>
<path fill-rule="evenodd" clip-rule="evenodd" d="M971.719 421.117C988.594 450.002 978.858 487.098 949.973 503.973C921.088 520.848 883.992 511.112 867.117 482.227C850.242 453.342 859.978 416.246 888.863 399.371C917.748 382.496 954.844 392.232 971.719 421.117ZM916.968 433.053L921.486 440.787C936.234 433.061 948.687 429.605 950.679 433.014C952.671 436.423 943.544 445.574 929.57 454.624L944.053 479.415L931.262 486.887L916.783 462.103C902.012 469.842 889.532 473.314 887.539 469.902C885.545 466.489 894.696 457.319 908.693 448.256L904.177 440.526L886.479 450.865L879.589 439.071L927.775 410.92L934.665 422.714L916.968 433.053Z" fill="#BBF519"/>
</g>
</g>
<g opacity="0.32" clip-path="url(#clip3_2056_123)">
<g filter="url(#filter3_b_2056_123)">
<path fill-rule="evenodd" clip-rule="evenodd" d="M1018.32 519.526C997.933 533.17 970.349 527.705 956.704 507.319C943.06 486.933 948.525 459.348 968.911 445.704C989.297 432.06 1016.88 437.524 1030.53 457.911C1044.17 478.297 1038.71 505.881 1018.32 519.526ZM979.75 489.349L982.542 493.52L986.611 490.796L990.638 496.813L986.569 499.537L989.201 503.47L993.271 500.746L998.892 509.146L1003.48 506.076L997.857 497.677L1007.08 491.501L1004.45 487.567L995.224 493.743L991.198 487.727L996.986 483.853C998.759 482.688 1000.35 481.271 1001.72 479.648C1003.01 478.096 1003.92 476.442 1004.45 474.672C1004.99 472.907 1005.1 471.06 1004.81 469.128C1004.51 467.198 1003.7 465.241 1002.37 463.254C1001.04 461.27 999.576 459.779 997.968 458.784C996.36 457.79 994.671 457.207 992.9 457.042C991.13 456.877 989.289 457.101 987.377 457.719C985.324 458.407 983.376 459.377 981.59 460.6L971.1 467.621L983.82 486.625L979.75 489.349ZM994.307 479.606L988.406 483.556L978.478 468.722L984.381 464.771C987.016 463.008 989.476 462.197 991.755 462.338C994.034 462.479 996.028 463.821 997.728 466.361C999.429 468.903 999.942 471.306 999.271 473.568C998.599 475.828 996.944 477.842 994.309 479.605L994.307 479.606Z" fill="#BBF519"/>
</g>
</g>
<g filter="url(#filter4_d_2056_123)">
<path d="M1847.43 350.5L1850.93 350.5L1850.93 343.5L1847.43 343.5L1847.43 350.5ZM1856 97.5001L1229 97.5L1229 104.5L1856 104.5L1856 97.5001ZM1135.5 191L1135.5 257L1142.5 257L1142.5 191L1135.5 191ZM1229 350.5L1847.43 350.5L1847.43 343.5L1229 343.5L1229 350.5ZM1135.5 257C1135.5 308.639 1177.36 350.5 1229 350.5L1229 343.5C1181.23 343.5 1142.5 304.773 1142.5 257L1135.5 257ZM1229 97.5C1177.36 97.5 1135.5 139.361 1135.5 191L1142.5 191C1142.5 143.227 1181.23 104.5 1229 104.5L1229 97.5Z" fill="#18191C"/>
<path d="M1847.43 350.5L1850.93 350.5L1850.93 343.5L1847.43 343.5L1847.43 350.5ZM1856 97.5001L1229 97.5L1229 104.5L1856 104.5L1856 97.5001ZM1135.5 191L1135.5 257L1142.5 257L1142.5 191L1135.5 191ZM1229 350.5L1847.43 350.5L1847.43 343.5L1229 343.5L1229 350.5ZM1135.5 257C1135.5 308.639 1177.36 350.5 1229 350.5L1229 343.5C1181.23 343.5 1142.5 304.773 1142.5 257L1135.5 257ZM1229 97.5C1177.36 97.5 1135.5 139.361 1135.5 191L1142.5 191C1142.5 143.227 1181.23 104.5 1229 104.5L1229 97.5Z" fill="url(#paint0_linear_2056_123)" fill-opacity="0.32"/>
<path d="M-24 220.5H-27.5V227.5H-24V220.5ZM629 473.5H1256V466.5H629V473.5ZM1349.5 380V314H1342.5V380H1349.5ZM1256 220.5H-24V227.5H1256V220.5ZM1349.5 314C1349.5 262.361 1307.64 220.5 1256 220.5V227.5C1303.77 227.5 1342.5 266.227 1342.5 314H1349.5ZM1256 473.5C1307.64 473.5 1349.5 431.639 1349.5 380H1342.5C1342.5 427.773 1303.77 466.5 1256 466.5V473.5Z" fill="#18191C"/>
<path d="M-24 220.5H-27.5V227.5H-24V220.5ZM629 473.5H1256V466.5H629V473.5ZM1349.5 380V314H1342.5V380H1349.5ZM1256 220.5H-24V227.5H1256V220.5ZM1349.5 314C1349.5 262.361 1307.64 220.5 1256 220.5V227.5C1303.77 227.5 1342.5 266.227 1342.5 314H1349.5ZM1256 473.5C1307.64 473.5 1349.5 431.639 1349.5 380H1342.5C1342.5 427.773 1303.77 466.5 1256 466.5V473.5Z" fill="url(#paint1_linear_2056_123)" fill-opacity="0.32"/>
<path d="M649.774 495L629.238 474.217C626.928 471.88 626.928 468.12 629.238 465.783L649.774 445" stroke="#18191C" stroke-width="7" stroke-linecap="square"/>
<path d="M649.774 495L629.238 474.217C626.928 471.88 626.928 468.12 629.238 465.783L649.774 445" stroke="#BBF519" stroke-opacity="0.32" stroke-width="7" stroke-linecap="square"/>
<path d="M639.5 506L607.743 474.243C605.399 471.899 605.399 468.1 607.743 465.757L639.5 434" stroke="#BBF519" stroke-width="7" stroke-linecap="square"/>
</g>
<defs>
<filter id="filter0_d_2056_123" x="1261" y="103" width="131" height="98" filterUnits="userSpaceOnUse" color-interpolation-filters="sRGB">
<feFlood flood-opacity="0" result="BackgroundImageFix"/>
<feColorMatrix in="SourceAlpha" type="matrix" values="0 0 0 0 0 0 0 0 0 0 0 0 0 0 0 0 0 0 127 0" result="hardAlpha"/>
<feOffset dy="4"/>
<feGaussianBlur stdDeviation="2"/>
<feComposite in2="hardAlpha" operator="out"/>
<feColorMatrix type="matrix" values="0 0 0 0 0 0 0 0 0 0 0 0 0 0 0 0 0 0 0.25 0"/>
<feBlend mode="normal" in2="BackgroundImageFix" result="effect1_dropShadow_2056_123"/>
<feBlend mode="normal" in="SourceGraphic" in2="effect1_dropShadow_2056_123" result="shape"/>
</filter>
<filter id="filter1_b_2056_123" x="1255.69" y="50.6916" width="143.617" height="143.617" filterUnits="userSpaceOnUse" color-interpolation-filters="sRGB">
<feFlood flood-opacity="0" result="BackgroundImageFix"/>
<feGaussianBlur in="BackgroundImageFix" stdDeviation="5.64756"/>
<feComposite in2="SourceAlpha" operator="in" result="effect1_backgroundBlur_2056_123"/>
<feBlend mode="normal" in="SourceGraphic" in2="effect1_backgroundBlur_2056_123" result="shape"/>
</filter>
<filter id="filter2_b_2056_123" x="838.1" y="370.354" width="162.636" height="162.636" filterUnits="userSpaceOnUse" color-interpolation-filters="sRGB">
<feFlood flood-opacity="0" result="BackgroundImageFix"/>
<feGaussianBlur in="BackgroundImageFix" stdDeviation="10.3679"/>
<feComposite in2="SourceAlpha" operator="in" result="effect1_backgroundBlur_2056_123"/>
<feBlend mode="normal" in="SourceGraphic" in2="effect1_backgroundBlur_2056_123" result="shape"/>
</filter>
<filter id="filter3_b_2056_123" x="928.458" y="417.459" width="130.312" height="130.312" filterUnits="userSpaceOnUse" color-interpolation-filters="sRGB">
<feFlood flood-opacity="0" result="BackgroundImageFix"/>
<feGaussianBlur in="BackgroundImageFix" stdDeviation="10.3679"/>
<feComposite in2="SourceAlpha" operator="in" result="effect1_backgroundBlur_2056_123"/>
<feBlend mode="normal" in="SourceGraphic" in2="effect1_backgroundBlur_2056_123" result="shape"/>
</filter>
<filter id="filter4_d_2056_123" x="-43.5" y="81.5" width="1915.5" height="461.5" filterUnits="userSpaceOnUse" color-interpolation-filters="sRGB">
<feFlood flood-opacity="0" result="BackgroundImageFix"/>
<feColorMatrix in="SourceAlpha" type="matrix" values="0 0 0 0 0 0 0 0 0 0 0 0 0 0 0 0 0 0 127 0" result="hardAlpha"/>
<feOffset/>
<feGaussianBlur stdDeviation="8"/>
<feComposite in2="hardAlpha" operator="out"/>
<feColorMatrix type="matrix" values="0 0 0 0 0.0941176 0 0 0 0 0.0980392 0 0 0 0 0.109804 0 0 0 1 0"/>
<feBlend mode="normal" in2="BackgroundImageFix" result="effect1_dropShadow_2056_123"/>
<feBlend mode="normal" in="SourceGraphic" in2="effect1_dropShadow_2056_123" result="shape"/>
</filter>
<linearGradient id="paint0_linear_2056_123" x1="1402" y1="368.5" x2="1266" y2="210" gradientUnits="userSpaceOnUse">
<stop stop-color="#BBF519" stop-opacity="0"/>
<stop offset="1" stop-color="#BBF519"/>
</linearGradient>
<linearGradient id="paint1_linear_2056_123" x1="522.5" y1="326.5" x2="631" y2="470" gradientUnits="userSpaceOnUse">
<stop stop-color="#BBF519" stop-opacity="0"/>
<stop offset="1" stop-color="#BBF519"/>
</linearGradient>
<clipPath id="clip0_2056_123">
<rect width="123" height="103" fill="white" transform="translate(1318)"/>
</clipPath>
<clipPath id="clip1_2056_123">
<rect width="123" height="90" fill="white" transform="translate(1265 103)"/>
</clipPath>
<clipPath id="clip2_2056_123">
<rect width="123" height="103" fill="white" transform="translate(857 367)"/>
</clipPath>
<clipPath id="clip3_2056_123">
<rect width="123" height="90" fill="white" transform="translate(932 470)"/>
</clipPath>
</defs>
</svg>
