<svg width="125" height="28" viewBox="0 0 125 28" fill="none" xmlns="http://www.w3.org/2000/svg">
<g clip-path="url(#clip0_93_725)">
<path d="M27.1838 5.95685C26.669 6.25469 26.2255 6.67809 25.8386 7.21245L25.0976 4.9436H19.2019V28H25.5172V15.7681C25.5172 14.0891 25.9934 12.7868 26.9487 11.864C27.904 10.9413 29.151 10.4799 30.6956 10.4799H32.6747V4.9436H31.3266C29.7254 4.9436 28.3445 5.28232 27.1779 5.95685H27.1838Z" fill="white"/>
<path d="M75.358 6.01817C74.0514 5.30277 72.5307 4.9436 70.7896 4.9436C69.1885 4.9436 67.7927 5.26772 66.5993 5.91597C66.0368 6.21965 65.5517 6.60509 65.135 7.06645L64.3464 4.9436H58.4507V28H64.766L64.7303 14.784C64.7303 13.9022 64.9059 13.1459 65.257 12.5123C65.6082 11.8786 66.1052 11.3822 66.751 11.026C67.3969 10.6697 68.126 10.4887 68.9415 10.4887C69.7569 10.4887 70.5218 10.6668 71.1527 11.026C71.7837 11.3852 72.2747 11.8816 72.6259 12.5123C72.9771 13.1459 73.1527 13.9022 73.1527 14.784L73.1884 28H79.5037V13.4963C79.5037 11.7881 79.1376 10.2931 78.4085 9.0141C77.6793 7.73222 76.6615 6.73357 75.355 6.01817H75.358Z" fill="white"/>
<path d="M10.0831 0H3.83323V4.94358L0 4.95818V10.4799H3.83323V19.7013C3.83323 22.3177 4.58916 24.3558 6.104 25.8129C7.61884 27.27 9.74973 28 12.4997 28C12.9729 28 13.4728 27.9737 13.9996 27.9182C14.5264 27.8628 14.9996 27.8102 15.4162 27.7547V22.5629C15.1395 22.5892 14.8746 22.6184 14.6246 22.6447C14.3746 22.671 14.1514 22.6856 13.9579 22.6856C13.0979 22.6856 12.3747 22.5629 11.7913 22.3177C11.208 22.0724 10.7765 21.6986 10.4997 21.1935C10.2229 20.6883 10.0831 20.0546 10.0831 19.2925V10.4799H15.4162V4.94358L10.0831 4.95818V0Z" fill="white"/>
<path d="M36.3354 10.4799H44.2459L39.496 13.5722C36.758 15.3534 35.3503 18.5596 35.9098 21.7366C36.6003 25.6436 40.0347 28 44.0763 28H49.1118V22.487H43.734C42.4781 22.487 41.4067 21.6023 41.1924 20.3875C41.0168 19.3977 41.4543 18.4019 42.3085 17.8471L49.1118 13.4321V22.487H54.7605V4.9436H36.3324V10.4799H36.3354Z" fill="white"/>
<path d="M106.101 4.9436V10.4799H114.012L109.262 13.5722C106.524 15.3534 105.116 18.5596 105.676 21.7366C106.366 25.6436 109.801 28 113.842 28H118.878V22.487H113.5C112.244 22.487 111.173 21.6023 110.958 20.3875C110.783 19.3977 111.22 18.4019 112.074 17.8471L118.878 13.4321V22.487H124.526V4.9436H106.098H106.101Z" fill="white"/>
<path d="M102.443 4.9436H83.1672V10.4799H83.2297H94.2949L83.1702 22.5075L83.1672 22.5104V28H102.443V22.5075V22.4637H91.6759L102.443 10.4829L102.446 10.4799H102.443V4.9436Z" fill="white"/>
</g>
<defs>
<clipPath id="clip0_93_725">
<rect width="124.526" height="28" fill="white"/>
</clipPath>
</defs>
</svg>
