<svg width="123" height="90" viewBox="0 0 123 90" fill="none" xmlns="http://www.w3.org/2000/svg">
<g opacity="0.32" clip-path="url(#clip0_2024_131)">
<g filter="url(#filter0_b_2024_131)">
<path fill-rule="evenodd" clip-rule="evenodd" d="M86.3192 49.5258C65.9328 63.1702 38.3485 57.7054 24.7041 37.3191C11.0597 16.9327 16.5245 -10.6515 36.9109 -24.2959C57.2972 -37.9403 84.8815 -32.4755 98.5259 -12.0892C112.17 8.29715 106.706 35.8814 86.3192 49.5258ZM47.7504 19.3491L50.5419 23.52L54.6114 20.7964L58.6381 26.8129L54.5687 29.5365L57.2012 33.4698L61.2707 30.7462L66.8924 39.1457L71.4786 36.0762L65.8569 27.6767L75.0846 21.5007L72.452 17.5674L63.2243 23.7434L59.1975 17.7269L64.9856 13.853C66.7588 12.6876 68.3538 11.2714 69.7207 9.6484C71.0067 8.09623 71.9168 6.44159 72.4494 4.67213C72.9852 2.9073 73.105 1.06006 72.8074 -0.871876C72.5113 -2.80151 71.6986 -4.75946 70.3692 -6.74572C69.0413 -8.72968 67.5758 -10.2206 65.968 -11.2155C64.3601 -12.2104 62.6707 -12.7933 60.9003 -12.9579C59.13 -13.1225 57.2888 -12.899 55.3774 -12.2811C53.3242 -11.5932 51.3764 -10.6234 49.5899 -9.39962L39.1003 -2.37901L51.8198 16.6255L47.7504 19.3491ZM62.3071 9.60642L56.406 13.556L46.478 -1.27757L52.3814 -5.22869C55.0159 -6.99195 57.4759 -7.80328 59.7551 -7.6619C62.0343 -7.52052 64.0277 -6.17911 65.7276 -3.63918C67.4291 -1.09694 67.9416 1.30579 67.2713 3.56824C66.5994 5.82837 64.9439 7.84162 62.3094 9.60487L62.3071 9.60642Z" fill="#BBF519"/>
</g>
</g>
<defs>
<filter id="filter0_b_2024_131" x="-3.5415" y="-52.5413" width="130.312" height="130.312" filterUnits="userSpaceOnUse" color-interpolation-filters="sRGB">
<feFlood flood-opacity="0" result="BackgroundImageFix"/>
<feGaussianBlur in="BackgroundImageFix" stdDeviation="10.3679"/>
<feComposite in2="SourceAlpha" operator="in" result="effect1_backgroundBlur_2024_131"/>
<feBlend mode="normal" in="SourceGraphic" in2="effect1_backgroundBlur_2024_131" result="shape"/>
</filter>
<clipPath id="clip0_2024_131">
<rect width="123" height="90" fill="white"/>
</clipPath>
</defs>
</svg>
