<svg width="123" height="103" viewBox="0 0 123 103" fill="none" xmlns="http://www.w3.org/2000/svg">
<g opacity="0.16" clip-path="url(#clip0_2024_129)">
<g filter="url(#filter0_b_2024_129)">
<path d="M71.3379 85.5156L71.3418 85.5221C83.6963 77.5503 91.8704 69.8153 90.3236 67.1675C88.7805 64.5263 78.0245 67.8419 65.0111 74.686L70.0584 83.3255C69.7082 83.5739 67.826 84.8927 63.8806 87.1977C60.5921 89.1189 58.1303 90.3686 57.2657 90.7948L52.2165 82.1521C39.8396 90.1457 31.6464 97.9006 33.1913 100.545C34.7382 103.193 45.5171 99.8639 58.5528 92.998L58.5471 92.9882C59.3872 92.55 61.7686 91.2903 65.0701 89.3615C69.2052 86.9457 70.9937 85.7518 71.3379 85.5156Z" fill="#BBF519"/>
<path fill-rule="evenodd" clip-rule="evenodd" d="M114.719 54.1166C131.594 83.0017 121.858 120.098 92.9731 136.973C64.0881 153.848 26.9922 144.112 10.1171 115.227C-6.758 86.3417 2.97796 49.2458 31.863 32.3707C60.748 15.4957 97.8439 25.2316 114.719 54.1166ZM59.9676 66.0531L64.486 73.7871C79.2335 66.0614 91.6872 62.6046 93.679 66.014C95.6708 69.4233 86.5438 78.5744 72.5697 87.6239L87.0528 112.415L74.2619 119.887L59.7827 95.1031C45.0122 102.842 32.5324 106.314 30.5387 102.902C28.545 99.4889 37.6962 90.3194 51.6932 81.2564L47.1768 73.5257L29.4795 83.8647L22.5893 72.0709L70.7748 43.9201L77.665 55.714L59.9676 66.0531Z" fill="#BBF519"/>
</g>
</g>
<defs>
<filter id="filter0_b_2024_129" x="-18.8999" y="3.35376" width="162.636" height="162.636" filterUnits="userSpaceOnUse" color-interpolation-filters="sRGB">
<feFlood flood-opacity="0" result="BackgroundImageFix"/>
<feGaussianBlur in="BackgroundImageFix" stdDeviation="10.3679"/>
<feComposite in2="SourceAlpha" operator="in" result="effect1_backgroundBlur_2024_129"/>
<feBlend mode="normal" in="SourceGraphic" in2="effect1_backgroundBlur_2024_129" result="shape"/>
</filter>
<clipPath id="clip0_2024_129">
<rect width="123" height="103" fill="white"/>
</clipPath>
</defs>
</svg>
