<svg width="54" height="54" viewBox="0 0 54 54" fill="none" xmlns="http://www.w3.org/2000/svg">
<path fill-rule="evenodd" clip-rule="evenodd" d="M34.9283 19.1163C35.1742 19.0133 35.4434 18.9778 35.7078 19.0134C35.9722 19.0491 36.2221 19.1546 36.4316 19.319C36.6411 19.4833 36.8025 19.7006 36.899 19.9481C36.9955 20.1956 37.0235 20.4643 36.9802 20.7262L34.7234 34.347C34.5044 35.6609 33.0556 36.4143 31.8446 35.7599C30.8316 35.2124 29.327 34.3688 27.9737 33.4886C27.297 33.048 25.2243 31.6371 25.479 30.6332C25.6979 29.7747 29.1807 26.549 31.1709 24.6312C31.952 23.8777 31.5958 23.443 30.6734 24.1361C28.3827 25.8569 24.7048 28.4737 23.4888 29.2104C22.4161 29.8599 21.8569 29.9708 21.1882 29.8599C19.9682 29.6579 18.8368 29.345 17.9134 28.9638C16.6655 28.449 16.7262 26.7421 17.9124 26.245L34.9283 19.1163Z" fill="white"/>
</svg>
